<?xml version="1.0" encoding="UTF-8"?>
<svg version="1.1" xmlns="http://www.w3.org/2000/svg" width="500" height="500">
<path d="M0 0 C165 0 330 0 500 0 C500 165 500 330 500 500 C335 500 170 500 0 500 C0 335 0 170 0 0 Z " fill="#FEFEFE" transform="translate(0,0)"/>
<path d="M0 0 C11.64566235 5.24979065 20.95592416 15.35251776 26.9375 26.5 C28.73219111 31.88407334 28.43430154 36.84399488 26.8125 42.25 C24.57711893 46.12466052 22.73208743 48.11081532 18.9375 50.5 C15.87541091 51.17546083 13.09188913 51.35661868 9.9375 51.5 C9.4425 56.45 9.4425 56.45 8.9375 61.5 C7.86757813 61.33757812 6.79765625 61.17515625 5.6953125 61.0078125 C0.07349104 60.30725087 -5.53002769 60.35417495 -11.1875 60.375 C-12.24582031 60.37113281 -13.30414063 60.36726563 -14.39453125 60.36328125 C-19.39019333 60.36954933 -24.15593258 60.43040226 -29.0625 61.5 C-29.7225 58.2 -30.3825 54.9 -31.0625 51.5 C-32.795 51.6546875 -32.795 51.6546875 -34.5625 51.8125 C-39.74323696 51.78494289 -43.26128232 49.95717811 -47.0625 46.5 C-50.1408685 42.6204123 -51.39839213 38.88924712 -51.1875 33.9375 C-50.24015043 28.82356668 -48.27158892 25.57947019 -44.0625 22.5 C-41.51017081 21.32411529 -38.96641219 20.20496055 -36.375 19.125 C-31.29476079 17.10556576 -31.29476079 17.10556576 -27.59765625 13.234375 C-26.90639049 10.90179311 -26.90639049 10.90179311 -26.515625 8.578125 C-25.77777809 5.19420639 -23.67644427 3.61605012 -21.0625 1.5 C-20.36125 0.901875 -19.66 0.30375 -18.9375 -0.3125 C-12.78885043 -2.8521596 -6.1851233 -2.19503587 0 0 Z " fill="#FAFAFA" transform="translate(326.0625,116.5)"/>
<path d="M0 0 C-0.66 2.31 -1.32 4.62 -2 7 C-2.57741943 7.11480713 -3.15483887 7.22961426 -3.74975586 7.34790039 C-21.94313491 11.03630753 -37.98602839 15.70707034 -53 27 C-54.34191406 28.00933594 -54.34191406 28.00933594 -55.7109375 29.0390625 C-73.39170691 42.79077204 -86.67630213 62.11368652 -92 84 C-92.29777344 85.12792969 -92.59554687 86.25585938 -92.90234375 87.41796875 C-97.01871408 105.41997542 -97.10302527 125.49132096 -91 143 C-90.45666016 144.64548828 -90.45666016 144.64548828 -89.90234375 146.32421875 C-85.16367018 159.64069463 -78.56510537 171.56108402 -69 182 C-68.17886719 182.91394531 -67.35773438 183.82789063 -66.51171875 184.76953125 C-48.59875278 203.74400631 -25.19564462 212.3999653 0 217 C-0.495 219.97 -0.495 219.97 -1 223 C1.97 223 4.94 223 8 223 C8 223.33 8 223.66 8 224 C-15.11440509 226.153516 -41.24466949 215.16229327 -59.1875 201.125 C-60.80299652 199.76332945 -62.4069311 198.38784263 -64 197 C-64.89332031 196.25105469 -65.78664062 195.50210938 -66.70703125 194.73046875 C-86.13785587 177.90853807 -100.65829 151.6324064 -102.84106445 125.73754883 C-103.13596946 120.65802526 -103.18441696 115.58700968 -103.1875 110.5 C-103.19974609 109.43652344 -103.21199219 108.37304688 -103.22460938 107.27734375 C-103.23691768 100.58983221 -102.56836039 94.49433738 -101 88 C-100.60941406 86.18822266 -100.60941406 86.18822266 -100.2109375 84.33984375 C-94.11613427 59.53342501 -79.50909872 37.24650007 -59 22 C-58.22398437 21.39800781 -57.44796875 20.79601562 -56.6484375 20.17578125 C-40.86573875 8.43113084 -19.84253405 -0.62992172 0 0 Z " fill="#080808" transform="translate(198,147)"/>
<path d="M0 0 C1.32 0.33 2.64 0.66 4 1 C4.6875 2.75 4.6875 2.75 5 5 C3.5625 7.25 3.5625 7.25 2 9 C3.98 9 5.96 9 8 9 C8.99 10.98 8.99 10.98 10 13 C8 14 8 14 5.86328125 13.96484375 C1.76965951 13.92096113 -0.97352915 14.00754476 -4.00390625 16.9375 C-5.83175929 19.55456028 -7.43369362 22.21885112 -9 25 C-9.56976563 25.9178125 -10.13953125 26.835625 -10.7265625 27.78125 C-13.78079057 32.68953757 -13.78079057 32.68953757 -16 38 C-7.94213146 32.53522214 -1.93473466 25.66569893 4 18 C5.98 18.495 5.98 18.495 8 19 C7.51539656 24.12295063 5.87051506 27.18497849 2.9375 31.375 C1.83728516 32.96441406 1.83728516 32.96441406 0.71484375 34.5859375 C0.14894531 35.38257813 -0.41695313 36.17921875 -1 37 C6.33870514 31.45520056 11.48943773 24.27434078 17 17 C18.65 17.33 20.3 17.66 22 18 C21.40440894 22.86872054 19.27522585 26.59328841 16.9375 30.8125 C16.56044922 31.50537109 16.18339844 32.19824219 15.79492188 32.91210938 C14.86916148 34.61128985 13.93537688 36.30609425 13 38 C18.23435005 33.72706118 22.67106815 29.18419194 27 24 C27.58984375 25.828125 27.58984375 25.828125 28 28 C24.43241647 34.8249424 18.51043757 40.45692698 12.0625 44.5625 C7.93033823 47.48169843 5.92814684 51.17815832 3.5 55.5 C0.29465863 61.18498407 -2.70255775 66.34627434 -9 69 C-11.875 69.0625 -11.875 69.0625 -14 68 C-16.56205842 64.15691236 -16.67366765 62.5659696 -16 58 C-12.13065643 51.1877754 -5.56009926 47.66861193 1.109375 44.0546875 C4.41104483 41.70782489 5.50533942 39.71559989 7 36 C6.55269531 36.5053125 6.10539062 37.010625 5.64453125 37.53125 C0.7239819 42.81900452 0.7239819 42.81900452 -2.75 43.6875 C-5.63562235 42.80578206 -6.48463125 41.55219999 -8 39 C-8.86625 39.66 -9.7325 40.32 -10.625 41 C-14.23127677 43.1370529 -15.90202743 43.55881444 -20 43 C-20.66 42.34 -21.32 41.68 -22 41 C-22 40.01 -22 39.02 -22 38 C-22.825 38.804375 -23.65 39.60875 -24.5 40.4375 C-28.22638335 43.56056414 -31.18736058 43.91978934 -36 44 C-38 42 -38 42 -38.5 38.9375 C-37.81188154 33.51856715 -35.1722663 30.31463366 -32 26 C-31.67 25.34 -31.34 24.68 -31 24 C-31.99 24 -32.98 24 -34 24 C-34.23976562 24.71929687 -34.47953125 25.43859375 -34.7265625 26.1796875 C-36.18676897 29.4136417 -37.97567748 31.51842703 -40.375 34.125 C-41.14585937 34.97320312 -41.91671875 35.82140625 -42.7109375 36.6953125 C-47.73438622 41.75305097 -47.73438622 41.75305097 -51.5625 42.5 C-54 42 -54 42 -55.8125 39.5 C-56.204375 38.675 -56.59625 37.85 -57 37 C-57.515625 37.804375 -58.03125 38.60875 -58.5625 39.4375 C-61.63205757 42.66447078 -63.64868459 42.74896257 -68 43 C-70.45661545 39.31507683 -70.31333488 37.72755161 -69.73828125 33.48046875 C-67.82298843 27.04549021 -62.42815701 21.72216481 -57 18 C-54.14675563 16.57337781 -52.16545451 16.68966132 -49 17 C-46.125 19 -46.125 19 -44 21 C-44.47947955 26.03453529 -46.09341452 28.91261417 -49 33 C-49.33 33.99 -49.66 34.98 -50 36 C-43.0271658 30.43188725 -39.0811932 25.47328131 -36 17 C-35.29875 17.185625 -34.5975 17.37125 -33.875 17.5625 C-30.66111302 18.05156976 -28.16439664 17.66231558 -25 17 C-23.4375 18.6875 -23.4375 18.6875 -22 21 C-22.3399953 25.18402375 -23.84087384 27.45366512 -26.5 30.625 C-28.64599498 33.20195299 -29.93099312 34.79297936 -31 38 C-22.91134439 32.3954239 -14.20345829 24.61037486 -11 15 C-13.475 14.505 -13.475 14.505 -16 14 C-16.495 12.515 -16.495 12.515 -17 11 C-16.27554688 10.96003906 -15.55109375 10.92007813 -14.8046875 10.87890625 C-8.74963014 10.28035467 -8.74963014 10.28035467 -3.93359375 6.86328125 C-2.47493319 4.62432516 -1.17080122 2.40088351 0 0 Z " fill="#0B0B0B" transform="translate(267,183)"/>
<path d="M0 0 C1.6875 0.875 1.6875 0.875 2.6875 1.875 C2.6875 11.19183822 -3.81180816 18.59488622 -10.0625 24.9375 C-12.42304196 27.21963235 -14.57136559 29.04757706 -17.3125 30.875 C-18.04215366 33.43782742 -18.04215366 33.43782742 -18.3125 35.875 C-11.9125854 33.27262509 -8.49441923 28.94154758 -4.16796875 23.79296875 C-1.51758534 20.77570649 0.02315312 19.0913551 3.9140625 17.82421875 C7.63515299 17.89235139 9.07421243 19.33857383 11.6875 21.875 C11.11115861 26.62981646 9.13681479 29.84548212 6.6875 33.875 C12.60982865 29.20026851 16.81321116 24.3468234 20.6875 17.875 C19.3675 17.215 18.0475 16.555 16.6875 15.875 C16.6875 14.885 16.6875 13.895 16.6875 12.875 C17.27917969 12.81183594 17.87085938 12.74867188 18.48046875 12.68359375 C23.40678921 11.95554258 23.40678921 11.95554258 27.3984375 9.18359375 C28.92583106 7.05938852 28.92583106 7.05938852 30.6875 3.875 C31.6775 4.205 32.6675 4.535 33.6875 4.875 C33.3575 6.855 33.0275 8.835 32.6875 10.875 C35.1625 11.37 35.1625 11.37 37.6875 11.875 C37.6875 12.865 37.6875 13.855 37.6875 14.875 C37.11902344 14.90335937 36.55054688 14.93171875 35.96484375 14.9609375 C32.04917645 15.44467603 29.50992625 16.02661947 26.70703125 18.91796875 C24.88868549 21.5070041 23.25751181 24.12845328 21.6875 26.875 C21.17832031 27.75285156 20.66914063 28.63070313 20.14453125 29.53515625 C18.95794987 31.63244715 17.80610727 33.74088291 16.6875 35.875 C22.13650669 31.92107225 26.83634287 27.91346559 31.08203125 22.671875 C32.81455435 20.73279806 34.49179475 19.26909857 36.6875 17.875 C41.09775641 18.28525641 41.09775641 18.28525641 42.6875 19.875 C43.22932532 23.8483857 43.02848336 25.41002269 40.625 28.6875 C37.21405584 31.2275648 34.88519372 31.62807684 30.6875 31.875 C30.6875 33.195 30.6875 34.515 30.6875 35.875 C37.560183 34.32864633 41.86009931 29.70240069 46.6875 24.875 C47.40158334 22.89143517 48.07367742 20.89184563 48.6875 18.875 C50.31168745 18.79409029 51.93701745 18.73585005 53.5625 18.6875 C54.46742188 18.65269531 55.37234375 18.61789062 56.3046875 18.58203125 C57.48417969 18.72705078 57.48417969 18.72705078 58.6875 18.875 C60.6875 21.875 60.6875 21.875 60.6875 24.125 C59.44053697 27.55414832 57.51538701 29.66495904 55.0625 32.32421875 C53.59473545 33.84489228 53.59473545 33.84489228 52.6875 35.875 C58.28237778 32.53784904 61.6979576 28.51201351 65.63085938 23.38867188 C67.76041262 20.73203148 69.20177456 19.04237375 72.46484375 17.91796875 C73.56505859 17.89669922 73.56505859 17.89669922 74.6875 17.875 C75.6875 18.875 75.6875 18.875 75.875 22 C75.67915552 26.04745263 74.93604964 29.05131673 73.6875 32.875 C76.3275 30.235 78.9675 27.595 81.6875 24.875 C82.1825 26.36 82.1825 26.36 82.6875 27.875 C79.49859607 32.69796961 74.40937575 38.79879496 68.7421875 40.4375 C65.32782271 41.04225834 63.22868691 41.18618247 60.1875 39.4375 C59.6925 38.921875 59.1975 38.40625 58.6875 37.875 C57.965625 38.37 57.24375 38.865 56.5 39.375 C53.51221062 40.96848767 52.00814527 41.41348302 48.6875 40.875 C46.6875 37.875 46.6875 37.875 46.8125 35.5625 C47.90581003 32.20447634 49.6352087 29.73576968 51.6875 26.875 C52.6775 25.39 52.6775 25.39 53.6875 23.875 C53.048125 24.514375 52.40875 25.15375 51.75 25.8125 C51.29625 26.26238281 50.8425 26.71226562 50.375 27.17578125 C49.08896075 28.47075133 47.82139327 29.78409364 46.5625 31.10546875 C37.32268722 40.67304515 37.32268722 40.67304515 30.3125 41.0625 C29.44625 41.000625 28.58 40.93875 27.6875 40.875 C27.0275 39.225 26.3675 37.575 25.6875 35.875 C22.50515895 37.62954385 22.50515895 37.62954385 19.6875 39.875 C14.27573529 40.34558824 14.27573529 40.34558824 11.8125 38.375 C11.44125 37.88 11.07 37.385 10.6875 36.875 C9.6975 37.535 8.7075 38.195 7.6875 38.875 C4.36509676 38.5508631 3.07973697 38.26723697 0.6875 35.875 C0.130625 36.535 -0.42625 37.195 -1 37.875 C-3.3125 39.875 -3.3125 39.875 -6.0625 40.125 C-6.805 40.0425 -7.5475 39.96 -8.3125 39.875 C-8.6425 38.555 -8.9725 37.235 -9.3125 35.875 C-9.9725 35.875 -10.6325 35.875 -11.3125 35.875 C-11.3125 36.535 -11.3125 37.195 -11.3125 37.875 C-13.99717808 39.94603737 -15.57302923 40.89219699 -19 40.8125 C-21.3125 39.875 -21.3125 39.875 -22.625 38.1875 C-24.48974652 31.91517079 -22.6281034 27.56283177 -19.75 22.0625 C-19.20690186 21.00518677 -19.20690186 21.00518677 -18.65283203 19.92651367 C-7.93069364 -0.42868614 -7.93069364 -0.42868614 0 0 Z " fill="#0F0F0F" transform="translate(267.3125,255.125)"/>
<path d="M0 0 C11.64566235 5.24979065 20.95592416 15.35251776 26.9375 26.5 C28.73219111 31.88407334 28.43430154 36.84399488 26.8125 42.25 C24.57711893 46.12466052 22.73208743 48.11081532 18.9375 50.5 C15.87541091 51.17546083 13.09188913 51.35661868 9.9375 51.5 C9.4425 56.45 9.4425 56.45 8.9375 61.5 C7.86757813 61.33757812 6.79765625 61.17515625 5.6953125 61.0078125 C0.07349104 60.30725087 -5.53002769 60.35417495 -11.1875 60.375 C-12.24582031 60.37113281 -13.30414063 60.36726563 -14.39453125 60.36328125 C-19.39019333 60.36954933 -24.15593258 60.43040226 -29.0625 61.5 C-29.7225 58.2 -30.3825 54.9 -31.0625 51.5 C-32.795 51.6546875 -32.795 51.6546875 -34.5625 51.8125 C-39.74323696 51.78494289 -43.26128232 49.95717811 -47.0625 46.5 C-50.1408685 42.6204123 -51.39839213 38.88924712 -51.1875 33.9375 C-50.24015043 28.82356668 -48.27158892 25.57947019 -44.0625 22.5 C-41.51017081 21.32411529 -38.96641219 20.20496055 -36.375 19.125 C-31.29476079 17.10556576 -31.29476079 17.10556576 -27.59765625 13.234375 C-26.90639049 10.90179311 -26.90639049 10.90179311 -26.515625 8.578125 C-25.77777809 5.19420639 -23.67644427 3.61605012 -21.0625 1.5 C-20.36125 0.901875 -19.66 0.30375 -18.9375 -0.3125 C-12.78885043 -2.8521596 -6.1851233 -2.19503587 0 0 Z M-22.0625 6.5 C-23.6661427 9.06129505 -24.86477387 11.73025832 -26.0625 14.5 C-26.75982837 15.9843865 -27.46785041 17.4638058 -28.1875 18.9375 C-28.49945313 19.59621094 -28.81140625 20.25492188 -29.1328125 20.93359375 C-30.0625 22.5 -30.0625 22.5 -32.0625 23.5 C-32.0625 22.51 -32.0625 21.52 -32.0625 20.5 C-34.00597036 21.4039397 -35.94209907 22.323675 -37.875 23.25 C-38.95394531 23.76046875 -40.03289062 24.2709375 -41.14453125 24.796875 C-44.06154624 26.49944332 -45.46189019 27.56099631 -47.0625 30.5 C-47.86753292 34.56541625 -48.01504041 38.73956421 -46.0078125 42.44921875 C-44.25015675 44.59688687 -42.55570013 46.25339994 -40.0625 47.5 C-38.68907169 47.5689472 -37.31247898 47.58467708 -35.9375 47.5625 C-34.65875 47.541875 -33.38 47.52125 -32.0625 47.5 C-32.62621414 44.23045798 -33.56212266 42.67424117 -36.0625 40.5 C-35.5675 40.005 -35.5675 40.005 -35.0625 39.5 C-34.546875 39.995 -34.03125 40.49 -33.5 41 C-30.11076907 43.08568057 -27.98717225 42.97366734 -24.0625 42.5 C-20.86917101 40.83391531 -18.61736408 39.02327789 -16.00390625 36.55859375 C-10.96602958 31.81757636 -6.85226324 29.04093917 -0.0625 27.5 C-0.60519531 27.81453125 -1.14789063 28.1290625 -1.70703125 28.453125 C-2.42246094 28.88109375 -3.13789063 29.3090625 -3.875 29.75 C-4.58269531 30.16765625 -5.29039062 30.5853125 -6.01953125 31.015625 C-8.21628977 32.61174017 -9.54702373 34.26264071 -11.0625 36.5 C-8.35809485 37.51189324 -5.64979099 38.50965691 -2.9375 39.5 C-2.17695313 39.78617188 -1.41640625 40.07234375 -0.6328125 40.3671875 C4.35866302 42.17444588 8.88643653 43.76095612 14.0546875 41.625 C14.63476562 41.25375 15.21484375 40.8825 15.8125 40.5 C16.84375 39.84 17.875 39.18 18.9375 38.5 C16.35965154 41.14752004 14.02101902 43.44432065 10.9375 45.5 C10.9375 46.49 10.9375 47.48 10.9375 48.5 C16.57610699 48.09724236 19.01096846 46.33521686 22.9375 42.5 C24.88094644 36.66966068 24.65049416 31.34326437 22.1875 25.6875 C16.38634582 15.21273992 6.41041333 6.10707183 -5.0625 2.5 C-11.6778223 1.4104175 -17.06371502 1.62313661 -22.0625 6.5 Z " fill="#141414" transform="translate(326.0625,116.5)"/>
<path d="M0 0 C3.3021865 2.81037149 4.70317936 4.29718685 5.4453125 8.5546875 C5.75431333 15.99130752 4.25503963 21.33995544 -0.6953125 26.90625 C-6.29711098 32.25857567 -12.70463568 35.5314148 -20.4375 36.375 C-23 36 -23 36 -26 34 C-26.25523437 34.69480469 -26.51046875 35.38960937 -26.7734375 36.10546875 C-28.14965828 39.35317449 -29.82539313 42.27982916 -31.625 45.3125 C-32.57246094 46.91544922 -32.57246094 46.91544922 -33.5390625 48.55078125 C-34.02117187 49.35902344 -34.50328125 50.16726562 -35 51 C-36.32 50.67 -37.64 50.34 -39 50 C-39.92873328 47.52013626 -40.24391982 45.70557811 -39.36767578 43.17089844 C-38.33645357 41.02641899 -37.22520649 38.95117924 -36.0625 36.875 C-35.65298096 36.12307373 -35.24346191 35.37114746 -34.8215332 34.59643555 C-31.34361865 28.33699365 -27.36200685 22.67753272 -23 17 C-22.19571096 15.82101251 -21.4013956 14.63504008 -20.625 13.4375 C-19 11 -19 11 -17 9 C-16.01 9 -15.02 9 -14 9 C-12.83825375 13.00224624 -12.81159234 14.60893161 -14.65234375 18.4296875 C-15.39688868 19.5893327 -16.15917801 20.73774936 -16.9375 21.875 C-17.32357422 22.46796875 -17.70964844 23.0609375 -18.10742188 23.671875 C-19.05640214 25.12463491 -20.02617868 26.56377337 -21 28 C-13.63653081 27.10874436 -8.45306132 23.69836746 -3.5 18.25 C-0.8770138 14.3155207 -0.65971294 11.7640189 -1 7 C-6.00330784 3.66446144 -11.66663077 4.62047925 -17.4375 5.625 C-22.69842364 6.93558345 -28.00048119 9.30107133 -32 13 C-32.37094436 15.63444736 -32.37094436 15.63444736 -32 18 C-34.5 16.875 -34.5 16.875 -37 15 C-37.6875 12.1875 -37.6875 12.1875 -37 9 C-32.3142646 2.31787733 -25.08789385 -1.20871186 -17.26171875 -2.68359375 C-10.84181701 -3.58171472 -5.79935258 -3.2826524 0 0 Z " fill="#090909" transform="translate(199,179)"/>
<path d="M0 0 C3.27570981 2.93973957 4.36222247 4.44727095 4.8125 8.875 C4.63845018 14.45483261 2.60678375 18.8088052 -1.140625 22.91796875 C-6.06870482 27.4131767 -11.19670485 30.3390671 -18 30.375 C-19.7634375 30.2821875 -19.7634375 30.2821875 -21.5625 30.1875 C-21.88863281 30.79078125 -22.21476563 31.3940625 -22.55078125 32.015625 C-22.98777344 32.81484375 -23.42476562 33.6140625 -23.875 34.4375 C-24.30425781 35.22640625 -24.73351562 36.0153125 -25.17578125 36.828125 C-26.5021214 39.08477134 -27.95134224 41.12748597 -29.5625 43.1875 C-30.8825 42.5275 -32.2025 41.8675 -33.5625 41.1875 C-33.09325415 35.59130871 -30.93520592 32.01320533 -27.9375 27.4375 C-27.48818115 26.73737793 -27.0388623 26.03725586 -26.57592773 25.31591797 C-25.25139379 23.26403606 -23.91093119 21.2237388 -22.5625 19.1875 C-21.86511719 18.13304687 -21.16773438 17.07859375 -20.44921875 15.9921875 C-16.02824733 9.49799822 -16.02824733 9.49799822 -12.5625 7.1875 C-11.9025 7.8475 -11.2425 8.5075 -10.5625 9.1875 C-10.9022971 13.0559593 -13.17281166 16.17202131 -15.125 19.4375 C-16.08599609 21.05398438 -16.08599609 21.05398438 -17.06640625 22.703125 C-17.56011719 23.52296875 -18.05382812 24.3428125 -18.5625 25.1875 C-8.61269062 20.95171029 -8.61269062 20.95171029 -1.5625 13.1875 C-0.68244663 9.46052782 -0.68244663 9.46052782 -0.5625 6.1875 C-4.34525754 3.66566164 -7.1900624 3.59450601 -11.5625 4.1875 C-16.88886098 5.68094099 -22.50374966 7.27099559 -26.5625 11.1875 C-26.5625 12.5075 -26.5625 13.8275 -26.5625 15.1875 C-27.8825 14.5275 -29.2025 13.8675 -30.5625 13.1875 C-30.9375 10.5 -30.9375 10.5 -30.5625 7.1875 C-28.54170784 5.16670784 -26.88978247 3.73718335 -24.5625 2.1875 C-23.716875 1.61 -22.87125 1.0325 -22 0.4375 C-15.44548287 -2.92379083 -6.52097899 -3.31769107 0 0 Z " fill="#0A0A0A" transform="translate(244.5625,255.8125)"/>
<path d="M0 0 C5.66714382 0.06960668 9.37663659 0.62996554 14.3125 3.3125 C15.63794647 3.67592887 16.97052128 4.01588239 18.3125 4.3125 C18.17212479 6.12543089 18.02505111 7.9378443 17.875 9.75 C17.79378906 10.75933594 17.71257812 11.76867187 17.62890625 12.80859375 C17.3125 15.3125 17.3125 15.3125 16.3125 16.3125 C13.86419574 16.40093793 11.44429401 16.42778752 8.99609375 16.41015625 C8.26503922 16.4087413 7.53398468 16.40732635 6.78077698 16.40586853 C4.43714368 16.40025408 2.09360461 16.38769922 -0.25 16.375 C-1.83528508 16.36998686 -3.42057166 16.36542363 -5.00585938 16.36132812 C-8.8997761 16.35027997 -12.79362205 16.33300572 -16.6875 16.3125 C-17.73452186 12.5860915 -17.76192057 9.18236958 -17.6875 5.3125 C-17.06101562 5.11914062 -16.43453125 4.92578125 -15.7890625 4.7265625 C-14.97179687 4.46617187 -14.15453125 4.20578125 -13.3125 3.9375 C-12.50039063 3.68226563 -11.68828125 3.42703125 -10.8515625 3.1640625 C-2.83373838 0.00903423 -2.83373838 0.00903423 0 0 Z " fill="#F6F6F6" transform="translate(315.6875,157.6875)"/>
<path d="M0 0 C0.99 0.495 0.99 0.495 2 1 C4.71477315 1.1225329 7.40557006 1.18570817 10.12158203 1.20532227 C11.38023071 1.22017166 11.38023071 1.22017166 12.66430664 1.23532104 C15.44544629 1.26697792 18.22660304 1.29171 21.0078125 1.31640625 C22.93309988 1.33697216 24.85838271 1.35796854 26.78366089 1.37937927 C31.85695718 1.43463741 36.93029447 1.48403017 42.00366211 1.53222656 C47.17825988 1.58241429 52.35279794 1.63811458 57.52734375 1.69335938 C67.68484485 1.8009867 77.84239774 1.9024215 88 2 C88 2.66 88 3.32 88 4 C76.83880695 4.13058877 65.67761173 4.26099035 54.51641369 4.39115143 C49.33410218 4.45159308 44.15179145 4.51209978 38.96948242 4.57275391 C33.97041816 4.63126095 28.97135194 4.68959872 23.97228432 4.74781799 C22.06286867 4.77008507 20.15345374 4.79241365 18.24403954 4.81480408 C15.57439735 4.8460988 12.90475274 4.87717694 10.23510742 4.90820312 C9.44172974 4.91755386 8.64835205 4.9269046 7.83093262 4.9365387 C2.35414336 4.99986141 -3.11609532 4.97855224 -8.5925293 4.90820312 C-9.36349945 4.89844955 -10.1344696 4.88869598 -10.92880249 4.87864685 C-13.4772769 4.84636122 -16.02574779 4.81380661 -18.57421875 4.78125 C-20.34113036 4.75881321 -22.10804219 4.73639318 -23.87495422 4.71398926 C-28.52576915 4.65497318 -33.17658115 4.59572906 -37.82739258 4.53643799 C-42.57307768 4.4759776 -47.31876552 4.41573212 -52.06445312 4.35546875 C-61.37630477 4.23718992 -70.68815333 4.11867025 -80 4 C-80 3.34 -80 2.68 -80 2 C-78.51875389 1.9845388 -78.51875389 1.9845388 -77.00758362 1.96876526 C-67.72194457 1.87120126 -58.4363751 1.76848377 -49.15084934 1.66066074 C-44.37655052 1.60538912 -39.60224562 1.55196248 -34.82788086 1.50268555 C-30.22428307 1.45510435 -25.62076219 1.40276407 -21.01725578 1.34705925 C-19.25692587 1.3266073 -17.49657485 1.30789902 -15.73620796 1.29092598 C-13.27922012 1.26694456 -10.82237901 1.23688191 -8.36547852 1.20532227 C-7.63036545 1.1995668 -6.89525238 1.19381134 -6.13786316 1.18788147 C-2.78273479 1.42956431 -2.78273479 1.42956431 0 0 Z " fill="#6F6F6F" transform="translate(266,306)"/>
<path d="M0 0 C2.33294775 -0.04241723 4.66702567 -0.04092937 7 0 C8 1 8 1 8.0625 3.5625 C8.041875 4.366875 8.02125 5.17125 8 6 C7.34 6 6.68 6 6 6 C6.495 6.78375 6.99 7.5675 7.5 8.375 C9 11 9 11 9 13 C8.34 13 7.68 13 7 13 C6.34 11.02 5.68 9.04 5 7 C4.01 7 3.02 7 2 7 C2 8.98 2 10.96 2 13 C1.34 13 0.68 13 0 13 C0 8.71 0 4.42 0 0 Z " fill="#2E2E2E" transform="translate(267,324)"/>
<path d="M0 0 C2.31 0 4.62 0 7 0 C8.13043478 4.52173913 8.13043478 4.52173913 7.4375 7.0625 C6.85417393 9.64580117 7.65948445 10.79209204 9 13 C6 12 6 12 4.9375 10 C4.628125 9.34 4.31875 8.68 4 8 C3.34 7.67 2.68 7.34 2 7 C2 8.98 2 10.96 2 13 C1.34 13 0.68 13 0 13 C0 8.71 0 4.42 0 0 Z " fill="#5C5C5C" transform="translate(291,324)"/>
<path d="M0 0 C2.97 0 5.94 0 9 0 C9 0.66 9 1.32 9 2 C6.69 2 4.38 2 2 2 C2 3.32 2 4.64 2 6 C3.98 6 5.96 6 8 6 C8 6.66 8 7.32 8 8 C6.02 8 4.04 8 2 8 C2 9.32 2 10.64 2 12 C4.31 12 6.62 12 9 12 C9 12.66 9 13.32 9 14 C6.03 14 3.06 14 0 14 C0 9.38 0 4.76 0 0 Z " fill="#4B4B4B" transform="translate(279,323)"/>
<path d="M0 0 C3 1 3 1 4.16796875 3.21484375 C4.50441406 4.11332031 4.84085938 5.01179688 5.1875 5.9375 C5.53167969 6.83339844 5.87585938 7.72929687 6.23046875 8.65234375 C7 11 7 11 7 13 C6.34 13 5.68 13 5 13 C5 12.01 5 11.02 5 10 C2.69 10 0.38 10 -2 10 C-2 10.99 -2 11.98 -2 13 C-2.66 13 -3.32 13 -4 13 C-3.52140759 11.39566191 -3.04210442 9.79153584 -2.5625 8.1875 C-2.29566406 7.29417969 -2.02882812 6.40085937 -1.75390625 5.48046875 C-1.19612127 3.64526945 -0.60655425 1.81966274 0 0 Z " fill="#282828" transform="translate(234,324)"/>
<path d="M0 0 C0 0.66 0 1.32 0 2 C-0.66 2 -1.32 2 -2 2 C-2.25910156 2.57363281 -2.51820313 3.14726562 -2.78515625 3.73828125 C-4.10190603 6.18972216 -5.60964713 8.09234822 -7.4375 10.1875 C-8.33275391 11.22970703 -8.33275391 11.22970703 -9.24609375 12.29296875 C-11 14 -11 14 -14 15 C-12.4145097 8.49948976 -7.44614724 0 0 0 Z " fill="#E4E4E4" transform="translate(217,205)"/>
<path d="M0 0 C2.05078125 0.03255208 4.1015625 0.06510417 6.15234375 0.09765625 C6.15234375 0.75765625 6.15234375 1.41765625 6.15234375 2.09765625 C3.84234375 2.09765625 1.53234375 2.09765625 -0.84765625 2.09765625 C-0.84765625 3.74765625 -0.84765625 5.39765625 -0.84765625 7.09765625 C1.13234375 7.09765625 3.11234375 7.09765625 5.15234375 7.09765625 C5.15234375 7.42765625 5.15234375 7.75765625 5.15234375 8.09765625 C3.17234375 8.09765625 1.19234375 8.09765625 -0.84765625 8.09765625 C-0.84765625 9.74765625 -0.84765625 11.39765625 -0.84765625 13.09765625 C1.46234375 13.09765625 3.77234375 13.09765625 6.15234375 13.09765625 C6.15234375 13.42765625 6.15234375 13.75765625 6.15234375 14.09765625 C3.18234375 14.09765625 0.21234375 14.09765625 -2.84765625 14.09765625 C-2.87451563 11.95188988 -2.89398713 9.8060298 -2.91015625 7.66015625 C-2.92175781 6.46519531 -2.93335938 5.27023437 -2.9453125 4.0390625 C-2.81615523 0.14884541 -2.81615523 0.14884541 0 0 Z " fill="#3C3C3C" transform="translate(257.84765625,322.90234375)"/>
<path d="M0 0 C1.67542976 0.28604898 3.34385343 0.61781233 5 1 C4.67 2.98 4.34 4.96 4 7 C6.97 7 9.94 7 13 7 C13 7.33 13 7.66 13 8 C11.10424749 8.02721176 9.20838021 8.04649136 7.3125 8.0625 C5.72888672 8.07990234 5.72888672 8.07990234 4.11328125 8.09765625 C1.27589738 8.00865425 -1.2438919 7.64939838 -4 7 C-3.34 6.67 -2.68 6.34 -2 6 C-1.62690101 4.34178227 -1.29299023 2.67422986 -1 1 C-0.67 0.67 -0.34 0.34 0 0 Z " fill="#4C4C4C" transform="translate(193,363)"/>
<path d="M0 0 C1.36125 0.37125 1.36125 0.37125 2.75 0.75 C2.75 1.74 2.75 2.73 2.75 3.75 C2.42 3.42 2.09 3.09 1.75 2.75 C-0.75 2.58333333 -0.75 2.58333333 -3.25 2.75 C-4.66577477 3.93424326 -4.66577477 3.93424326 -4.3125 7.3125 C-4.291875 8.446875 -4.27125 9.58125 -4.25 10.75 C-1.89632287 11.4378236 -1.89632287 11.4378236 0.75 11.75 C1.74 11.09 2.73 10.43 3.75 9.75 C3.09 11.07 2.43 12.39 1.75 13.75 C-3.61842105 14.10789474 -3.61842105 14.10789474 -6.125 12.6875 C-7.91830867 9.59902396 -7.67841969 7.23856031 -7.25 3.75 C-4.99777474 0.28503806 -4.16825202 -0.32063477 0 0 Z " fill="#353535" transform="translate(224.25,323.25)"/>
<path d="M0 0 C0.33 0.66 0.66 1.32 1 2 C-0.57575832 4.27642949 -2.16009067 6.545986 -3.75 8.8125 C-4.1934375 9.45509766 -4.636875 10.09769531 -5.09375 10.75976562 C-7.43540936 14.08285575 -9.49857281 16.79933665 -13 19 C-11.64166972 15.24105631 -9.93202341 12.19654835 -7.625 8.9375 C-7.03976562 8.10089844 -6.45453125 7.26429688 -5.8515625 6.40234375 C-4.04957927 4.06432754 -2.1338219 2.03512089 0 0 Z " fill="#DBDBDB" transform="translate(265,261)"/>
<path d="M0 0 C3.63 0 7.26 0 11 0 C11 0.66 11 1.32 11 2 C9.68 2 8.36 2 7 2 C7 5.96 7 9.92 7 14 C6.34 14 5.68 14 5 14 C5 10.04 5 6.08 5 2 C3.35 2 1.7 2 0 2 C0 1.34 0 0.68 0 0 Z " fill="#565656" transform="translate(242,323)"/>
<path d="M0 0 C2.97 0 5.94 0 9 0 C8.34 2.31 7.68 4.62 7 7 C4.69 7.33 2.38 7.66 0 8 C0.66 7.67 1.32 7.34 2 7 C2.65772428 3.97065509 2.65772428 3.97065509 3 1 C2.01 0.67 1.02 0.34 0 0 Z " fill="#424242" transform="translate(189,147)"/>
<path d="M0 0 C-3.01887244 3.48331435 -5.56909529 4.79157144 -10 6 C-10.33 4.35 -10.66 2.7 -11 1 C-4 -1.33333333 -4 -1.33333333 0 0 Z " fill="#E7E7E7" transform="translate(308,286)"/>
<path d="M0 0 C2.5 0.3125 2.5 0.3125 5 1 C5.33 1.66 5.66 2.32 6 3 C3.03 2.505 3.03 2.505 0 2 C0.68885796 5.21061378 0.68885796 5.21061378 3.5625 6.375 C4.366875 6.91125 5.17125 7.4475 6 8 C6.375 10.625 6.375 10.625 6 13 C5 14 5 14 1.9375 14.0625 C0.968125 14.041875 -0.00125 14.02125 -1 14 C-1.33 12.68 -1.66 11.36 -2 10 C-0.515 10.99 -0.515 10.99 1 12 C1.99 12 2.98 12 4 12 C4 11.01 4 10.02 4 9 C3.175 8.54625 2.35 8.0925 1.5 7.625 C0.675 7.08875 -0.15 6.5525 -1 6 C-1.375 3.375 -1.375 3.375 -1 1 C-0.67 0.67 -0.34 0.34 0 0 Z " fill="#343434" transform="translate(309,323)"/>
<path d="M0 0 C0.99 0.33 1.98 0.66 3 1 C1.57282151 2.67551353 0.13291518 4.34019309 -1.3125 6 C-2.51326172 7.3921875 -2.51326172 7.3921875 -3.73828125 8.8125 C-6 11 -6 11 -9 11 C-6.36113346 6.7973607 -3.63559661 3.43361902 0 0 Z " fill="#E8E8E8" transform="translate(271,278)"/>
<path d="M0 0 C0 3.73928499 -0.91959602 4.40902253 -3.375 7.125 C-4.31472656 8.18074219 -4.31472656 8.18074219 -5.2734375 9.2578125 C-7 11 -7 11 -9 12 C-8.52379711 7.62346871 -7.33100111 5.93461995 -3.9375 3.1875 C-3.20402344 2.58292969 -2.47054688 1.97835937 -1.71484375 1.35546875 C-1.14894531 0.90816406 -0.58304687 0.46085938 0 0 Z " fill="#F0F0F0" transform="translate(265,234)"/>
<path d="M0 0 C1 2 1 2 0.1875 4.9375 C-1 8 -1 8 -3 11 C-3.99 11 -4.98 11 -6 11 C-5.55530671 5.96014269 -3.28656638 3.62365012 0 0 Z " fill="#EBEBEB" transform="translate(336,280)"/>
<path d="M0 0 C0 4.10202215 -1.4911355 5.81306402 -4 9 C-6.75 10.375 -6.75 10.375 -9 11 C-9 10.34 -9 9.68 -9 9 C-9.66 8.67 -10.32 8.34 -11 8 C-9.948125 7.690625 -9.948125 7.690625 -8.875 7.375 C-5.04274884 5.54218423 -2.89547493 3.09748481 0 0 Z " fill="#CCCCCC" transform="translate(274,218)"/>
<path d="M0 0 C2.64 0 5.28 0 8 0 C7.67 1.98 7.34 3.96 7 6 C5.68 6.33 4.36 6.66 3 7 C3 5.02 3 3.04 3 1 C2.01 0.67 1.02 0.34 0 0 Z " fill="#202020" transform="translate(184,148)"/>
<path d="M0 0 C2.97 0.495 2.97 0.495 6 1 C5.34 2.98 4.68 4.96 4 7 C2.68 7 1.36 7 0 7 C0 4.69 0 2.38 0 0 Z " fill="#1D1D1D" transform="translate(187,362)"/>
<path d="M0 0 C2.475 0.495 2.475 0.495 5 1 C4.67 2.32 4.34 3.64 4 5 C2.68 5 1.36 5 0 5 C0 3.35 0 1.7 0 0 Z " fill="#E2E2E2" transform="translate(269,325)"/>
<path d="M0 0 C0.99 0 1.98 0 3 0 C1.7508258 3.45925163 0.32472205 6.14693203 -2 9 C-2.6875 7.3125 -2.6875 7.3125 -3 5 C-1.75 2.25 -1.75 2.25 0 0 Z " fill="#D6D6D6" transform="translate(233,207)"/>
<path d="M0 0 C0.33 0.66 0.66 1.32 1 2 C-0.8125 5 -0.8125 5 -3 8 C-3.99 8 -4.98 8 -6 8 C-4.55746343 4.63408134 -2.66735273 2.48952921 0 0 Z " fill="#E3E3E3" transform="translate(265,261)"/>
<path d="M0 0 C-4.95 2.475 -4.95 2.475 -10 5 C-9.67 3.68 -9.34 2.36 -9 1 C-5.31975221 -1.08878929 -4.24507101 -1.06126775 0 0 Z " fill="#262626" transform="translate(328,144)"/>
<path d="M0 0 C1.74627478 2.61941217 2.38722388 4.03824877 3 7 C1.35 7 -0.3 7 -2 7 C-1.34 4.69 -0.68 2.38 0 0 Z " fill="#CFCFCF" transform="translate(235,326)"/>
</svg>
